<svg width="29" height="30" viewBox="0 0 29 30" fill="none" xmlns="http://www.w3.org/2000/svg">
<path fill-rule="evenodd" clip-rule="evenodd" d="M1.34171 1.34171C1.79732 0.886097 2.53601 0.886097 2.99162 1.34171L3.55846 1.90855C4.13968 2.48977 4.4978 3.25701 4.57004 4.07579L4.71041 5.66667H26.6667C27.0063 5.66667 27.3291 5.81467 27.5507 6.07202C27.7723 6.32937 27.8708 6.67052 27.8204 7.0064L26.3685 16.6859C26.1115 18.3992 24.6397 19.6667 22.9072 19.6667H5.94571L6.0577 20.9359C6.11084 21.5381 6.61526 22 7.21985 22H22C23.933 22 25.5 23.567 25.5 25.5C25.5 27.433 23.933 29 22 29C20.067 29 18.5 27.433 18.5 25.5C18.5 25.0909 18.5702 24.6982 18.6992 24.3333H10.1342C10.2632 24.6982 10.3333 25.0909 10.3333 25.5C10.3333 27.433 8.76633 29 6.83333 29C4.90034 29 3.33333 27.433 3.33333 25.5C3.33333 24.4958 3.75626 23.5903 4.43371 22.9521C4.04567 22.4425 3.79345 21.8216 3.7334 21.141L2.24574 4.28088C2.22166 4.00795 2.10229 3.7522 1.90855 3.55846L1.34171 2.99162C0.886097 2.53601 0.886097 1.79732 1.34171 1.34171ZM22 24.3333C21.3557 24.3333 20.8333 24.8557 20.8333 25.5C20.8333 26.1443 21.3557 26.6667 22 26.6667C22.6443 26.6667 23.1667 26.1443 23.1667 25.5C23.1667 24.8557 22.6443 24.3333 22 24.3333ZM5.73983 17.3333H22.9072C23.4847 17.3333 23.9753 16.9108 24.061 16.3397L25.3119 8H4.9163L5.73983 17.3333ZM6.83333 24.3333C6.189 24.3333 5.66667 24.8557 5.66667 25.5C5.66667 26.1443 6.189 26.6667 6.83333 26.6667C7.47767 26.6667 8 26.1443 8 25.5C8 24.8557 7.47767 24.3333 6.83333 24.3333Z" fill="#32C220" stroke="#E6EBF1" stroke-width="0.6" stroke-linecap="round" stroke-linejoin="round"/>
</svg>
