<svg width="15" height="15" viewBox="0 0 15 15" fill="none" xmlns="http://www.w3.org/2000/svg">
<path d="M3.46127 12.2C3.08002 12.2 2.72377 12.0687 2.46752 11.825C2.14252 11.5187 1.98627 11.0562 2.04252 10.5562L2.27377 8.53122C2.31752 8.14997 2.54877 7.64372 2.81752 7.36872L7.94877 1.93747C9.23002 0.58122 10.5675 0.54372 11.9238 1.82497C13.28 3.10622 13.3175 4.44372 12.0363 5.79997L6.90502 11.2312C6.64252 11.5125 6.15502 11.775 5.77377 11.8375L3.76127 12.1812C3.65502 12.1875 3.56127 12.2 3.46127 12.2ZM9.95502 1.81872C9.47377 1.81872 9.05502 2.11872 8.63002 2.56872L3.49877 8.00622C3.37377 8.13747 3.23002 8.44997 3.20502 8.63122L2.97377 10.6562C2.94877 10.8625 2.99877 11.0312 3.11127 11.1375C3.22377 11.2437 3.39252 11.2812 3.59877 11.25L5.61127 10.9062C5.79252 10.875 6.09252 10.7125 6.21752 10.5812L11.3488 5.14997C12.1238 4.32497 12.405 3.56247 11.2738 2.49997C10.7738 2.01872 10.3425 1.81872 9.95502 1.81872Z" fill="#32C220"/>
<path d="M10.8363 6.84378C10.8238 6.84378 10.8051 6.84378 10.7926 6.84378C8.84256 6.65003 7.27381 5.16878 6.97381 3.23128C6.93631 2.97503 7.11131 2.73753 7.36756 2.69378C7.62381 2.65628 7.86131 2.83128 7.90506 3.08753C8.14256 4.60003 9.36756 5.76253 10.8926 5.91253C11.1488 5.93753 11.3363 6.16878 11.3113 6.42503C11.2801 6.66253 11.0738 6.84378 10.8363 6.84378Z" fill="#32C220"/>
<path d="M13.125 14.2188H1.875C1.61875 14.2188 1.40625 14.0063 1.40625 13.75C1.40625 13.4938 1.61875 13.2812 1.875 13.2812H13.125C13.3813 13.2812 13.5938 13.4938 13.5938 13.75C13.5938 14.0063 13.3813 14.2188 13.125 14.2188Z" fill="#32C220"/>
</svg>
