<svg width="15" height="14" viewBox="0 0 15 14" fill="none" xmlns="http://www.w3.org/2000/svg">
<path d="M7.23923 13.7464C6.90218 13.7684 6.44156 13.7051 6.09449 13.2999C5.64779 12.7784 5.31111 11.6075 5.79346 9.04721L5.79371 9.04587C5.84199 8.7817 5.68353 8.50691 5.40438 8.44707C5.32454 8.42772 5.25336 8.43544 5.20681 8.44378C4.9731 8.4746 3.29357 8.68399 1.92715 8.48673C1.22472 8.38532 0.680545 8.18588 0.421889 7.87233C0.301489 7.72638 0.236286 7.54787 0.252508 7.31357C0.269286 7.07122 0.374473 6.75815 0.622097 6.36024L0.622158 6.36028L0.625201 6.35512C0.736445 6.16643 0.722829 5.92278 0.581129 5.75224C0.529358 5.67817 0.369165 5.43384 0.330645 5.15767C0.311348 5.01933 0.324094 4.8831 0.388155 4.75631C0.451784 4.63037 0.578045 4.48989 0.82785 4.36304L0.82786 4.36306L0.830666 4.36159C1.05801 4.2425 1.1639 3.96922 1.07716 3.72725C1.06 3.67349 0.972057 3.3724 0.982841 3.04643C0.993868 2.71311 1.10164 2.41988 1.418 2.27707C1.4181 2.27702 1.41819 2.27698 1.41828 2.27694L7.23923 13.7464ZM7.23923 13.7464C6.91657 9.5533 9.15684 7.64418 10.0254 7.0699C10.0254 7.06567 10.0254 7.06144 10.0254 7.05722V0.836281L9.04197 0.269369H2.97441C2.97164 0.269369 2.93484 0.270546 2.89346 0.262729C2.59895 0.22196 2.39711 0.283461 2.25171 0.382584C2.09951 0.486343 1.98536 0.647834 1.90172 0.840779C1.73614 1.22274 1.71868 1.66069 1.71794 1.77408L7.23923 13.7464Z" stroke="#FF6C36" stroke-width="0.5"/>
<path d="M11.0277 7.27457L11.0277 7.27455L11.025 7.27181C10.9753 7.22129 10.9415 7.14652 10.9415 7.05721V0.619615C10.9457 0.594438 10.947 0.571918 10.9473 0.556282C10.9595 0.493251 10.9882 0.439109 11.0277 0.397707L11.0277 0.397728L11.0303 0.39491C11.0784 0.342985 11.1445 0.312349 11.2191 0.312349H14.4724C14.5427 0.312349 14.6107 0.342052 14.6638 0.397708L14.6638 0.397728L14.6665 0.400468C14.7162 0.450979 14.75 0.525757 14.75 0.61506V7.05721C14.75 7.14201 14.7171 7.21874 14.6638 7.27457L14.6638 7.27455L14.6612 7.27736C14.6131 7.32929 14.547 7.35992 14.4724 7.35992H11.2191C11.1488 7.35992 11.0808 7.33022 11.0277 7.27457Z" stroke="#FF6C36" stroke-width="0.5"/>
</svg>
