
<svg width="18" height="17" viewBox="0 0 18 17" fill="none" xmlns="http://www.w3.org/2000/svg">
<path fill-rule="evenodd" clip-rule="evenodd" d="M9.01108 16.7481C8.48702 11.3942 11.4907 9.1612 12.3418 8.64165C12.3348 8.58638 12.3312 8.52742 12.3312 8.46847V0.830003L10.9314 0.0230446H3.57008C3.55601 0.0230446 3.53842 0.0230446 3.52436 0.0193596C1.8291 -0.223833 1.76227 1.87647 1.76227 2.13809C1.77283 2.27074 1.70248 2.40339 1.57938 2.45866C0.517211 2.93767 0.967403 4.44105 1.00961 4.57001C1.06588 4.72109 0.999058 4.89427 0.858373 4.96797C-0.520342 5.66807 0.348389 6.92825 0.460937 7.08669C0.552382 7.18986 0.56645 7.34831 0.492591 7.47359C-2.00457 11.4863 5.79642 10.4951 6.29585 10.4287C6.33454 10.4214 6.37675 10.4177 6.41895 10.4287C6.58426 10.4619 6.68977 10.6277 6.65812 10.8009C5.49395 16.9802 8.17752 16.9139 9.01811 16.7554L9.01108 16.7481Z" fill="#FF6C36"/>
<path fill-rule="evenodd" clip-rule="evenodd" d="M12.8298 0.737998V8.46858C12.8298 8.65282 12.9002 8.81863 13.0162 8.93654C13.1323 9.05814 13.2906 9.13184 13.4629 9.13184H17.3669C17.5428 9.13184 17.701 9.05814 17.8136 8.93654C17.9297 8.81495 18 8.64913 18 8.46858V0.737998C18 0.553761 17.9297 0.387948 17.8136 0.270036C17.6975 0.148439 17.5393 0.0747452 17.3669 0.0747452H13.4629C13.287 0.0747452 13.1288 0.148439 13.0162 0.270036C12.9213 0.369524 12.858 0.49849 12.8369 0.642195C12.8369 0.664304 12.8369 0.690097 12.8298 0.712205C12.8298 0.719574 12.8298 0.730629 12.8298 0.737998Z" fill="#FF6C36"/>
</svg>
