<svg width="18" height="17" viewBox="0 0 18 17" fill="none" xmlns="http://www.w3.org/2000/svg">
<path d="M8.4738 16.2988C8.1435 16.2852 7.76334 16.1766 7.46607 15.8296C6.99295 15.2772 6.57283 13.9542 7.14948 10.8935L7.14997 10.8908C7.22548 10.4777 6.97853 10.0385 6.53027 9.94123C6.40072 9.91041 6.28762 9.92256 6.21843 9.93463C5.92309 9.97341 3.9438 10.2172 2.34194 9.98593C1.50391 9.86495 0.919984 9.63288 0.661328 9.31933C0.549855 9.1842 0.487338 9.02064 0.503313 8.7899C0.520402 8.54307 0.629949 8.19919 0.917101 7.73777L0.917223 7.73784L0.923311 7.72752C1.09622 7.43423 1.07862 7.05362 0.857819 6.78179C0.796667 6.69326 0.634218 6.43798 0.595637 6.16138C0.576682 6.02548 0.590742 5.90511 0.645078 5.79756C0.698549 5.69172 0.814929 5.5508 1.08475 5.41378L1.08477 5.41382L1.09038 5.41088C1.45091 5.22203 1.61817 4.79157 1.48295 4.40869C1.46365 4.34725 1.36839 4.01539 1.38008 3.66214C1.39217 3.2966 1.5058 3.04041 1.78478 2.91452C2.10974 2.76831 2.27721 2.43909 2.26235 2.12446C2.26373 1.98983 2.28615 1.50397 2.46634 1.08828C2.55742 0.878185 2.67419 0.720478 2.81549 0.624155C2.94372 0.536736 3.13331 0.471096 3.43982 0.512411C3.4735 0.51861 3.50128 0.520758 3.51816 0.52174C3.54128 0.523085 3.56218 0.523054 3.5689 0.523045H3.57008H10.7976L11.8312 1.1189V8.37747C10.7114 9.14851 8.178 11.4537 8.4738 16.2988Z" stroke="#363636"/>
<path d="M13.3779 8.59131L13.378 8.59127L13.3726 8.58579C13.3505 8.56338 13.3298 8.52436 13.3298 8.46858V0.757884C13.3333 0.733204 13.3351 0.710869 13.336 0.692543C13.3445 0.659958 13.3598 0.634221 13.3779 0.615266L13.378 0.615307L13.3832 0.609674C13.4043 0.586886 13.431 0.574745 13.4629 0.574745H17.3669C17.3926 0.574745 17.423 0.585021 17.4519 0.615268L17.4519 0.615308L17.4573 0.620788C17.4793 0.643203 17.5 0.682219 17.5 0.737998V8.46858C17.5 8.51781 17.4811 8.56072 17.4519 8.59131L17.4519 8.59127L17.4466 8.59691C17.4256 8.6197 17.3989 8.63184 17.3669 8.63184H13.4629C13.4372 8.63184 13.4068 8.62156 13.3779 8.59131Z" stroke="#363636"/>
</svg>
