<svg width="18" height="17" viewBox="0 0 18 17" fill="none" xmlns="http://www.w3.org/2000/svg">
<path d="M9.5262 0.501017C9.8565 0.514647 10.2367 0.623182 10.5339 0.970236C11.007 1.52258 11.4272 2.84557 10.8505 5.90632L10.85 5.909C10.7745 6.32214 11.0215 6.76128 11.4697 6.85858C11.5993 6.88939 11.7124 6.87725 11.7816 6.86517C12.0769 6.8264 14.0562 6.58263 15.6581 6.81388C16.4961 6.93486 17.08 7.16692 17.3387 7.48047C17.4501 7.6156 17.5127 7.77916 17.4967 8.0099C17.4796 8.25673 17.3701 8.60061 17.0829 9.06204L17.0828 9.06196L17.0767 9.07229C16.9038 9.36558 16.9214 9.74618 17.1422 10.018C17.2033 10.1065 17.3658 10.3618 17.4044 10.6384C17.4233 10.7743 17.4093 10.8947 17.3549 11.0022C17.3015 11.1081 17.1851 11.249 16.9152 11.386L16.9152 11.386L16.9096 11.3889C16.5491 11.5778 16.3818 12.0082 16.517 12.3911C16.5363 12.4526 16.6316 12.7844 16.6199 13.1377C16.6078 13.5032 16.4942 13.7594 16.2152 13.8853C15.8903 14.0315 15.7228 14.3607 15.7377 14.6753C15.7363 14.81 15.7139 15.2958 15.5337 15.7115C15.4426 15.9216 15.3258 16.0793 15.1845 16.1756C15.0563 16.2631 14.8667 16.3287 14.5602 16.2874C14.5265 16.2812 14.4987 16.279 14.4818 16.2781C14.4587 16.2767 14.4378 16.2768 14.4311 16.2768H14.4299H7.20237L6.16875 15.6809V8.42233C7.28858 7.65129 9.822 5.34611 9.5262 0.501017Z" stroke="#363636"/>
<path d="M4.62209 8.20849L4.62205 8.20853L4.62744 8.21401C4.6495 8.23643 4.67018 8.27544 4.67018 8.33122V16.0419C4.66675 16.0666 4.66492 16.0889 4.66396 16.1073C4.65552 16.1398 4.64018 16.1656 4.62209 16.1845L4.62204 16.1845L4.61683 16.1901C4.59574 16.2129 4.56903 16.2251 4.5371 16.2251H0.633083C0.607413 16.2251 0.576962 16.2148 0.548091 16.1845L0.548134 16.1845L0.542741 16.179C0.520677 16.1566 0.5 16.1176 0.5 16.0618V8.33122C0.5 8.282 0.518893 8.23908 0.548092 8.20849L0.548134 8.20853L0.55335 8.2029C0.574442 8.18011 0.601148 8.16797 0.633083 8.16797H4.5371C4.56276 8.16797 4.59322 8.17824 4.62209 8.20849Z" stroke="#363636"/>
</svg>
