<svg width="15" height="14" viewBox="0 0 15 14" fill="none" xmlns="http://www.w3.org/2000/svg">
<path d="M8.02774 0.507664C8.26217 0.533756 8.51418 0.627543 8.71564 0.862741C9.08368 1.29242 9.44049 2.3607 8.96086 4.90651L8.96037 4.90918C8.89011 5.29354 9.1196 5.70507 9.54035 5.79676C9.66214 5.82555 9.76779 5.81432 9.8312 5.80337C10.0826 5.77044 11.7176 5.57021 13.0371 5.76071C13.7334 5.86123 14.1913 6.05159 14.3853 6.28675C14.4644 6.38269 14.5099 6.49789 14.4981 6.66916C14.4851 6.85653 14.4008 7.12984 14.1656 7.50767L14.1655 7.50759L14.1594 7.51791C13.999 7.79007 14.0141 8.1438 14.219 8.39823C14.2689 8.47089 14.3927 8.66829 14.4218 8.87687C14.4358 8.97757 14.4246 9.05992 14.3887 9.13096C14.3537 9.20028 14.2713 9.3062 14.059 9.41405L14.0589 9.41401L14.0533 9.41695C13.7164 9.59343 13.5603 9.99469 13.6858 10.3523C13.7012 10.4016 13.7765 10.6662 13.7673 10.9453C13.7577 11.2352 13.6698 11.4088 13.4797 11.4948C13.4794 11.4949 13.4792 11.495 13.4789 11.4952L8.02774 0.507664ZM8.02774 0.507664C8.23529 4.46768 6.18315 6.38982 5.22461 7.06214V13.0193L6.02493 13.4806H12.0256L12.0265 13.4806C12.0322 13.4806 12.0518 13.4806 12.0737 13.4819C12.0893 13.4828 12.1153 13.4848 12.1471 13.4905C12.3833 13.522 12.5197 13.4707 12.6075 13.4109C12.708 13.3423 12.7969 13.2259 12.8689 13.0598C13.0116 12.7306 13.0307 12.3417 13.032 12.2309L8.02774 0.507664Z" stroke="#32C220"/>
<path d="M3.79146 6.89805L3.79142 6.89809L3.79681 6.90357C3.79953 6.90633 3.80848 6.91771 3.80848 6.94279V13.363C3.80632 13.3796 3.80491 13.3949 3.804 13.4084C3.80048 13.4184 3.79569 13.4252 3.79146 13.4297L3.79142 13.4296L3.7862 13.4353C3.78534 13.4362 3.78466 13.4367 3.78426 13.437L3.78367 13.4374L3.78365 13.4374L3.78347 13.4375C3.78331 13.4375 3.78253 13.4377 3.78091 13.4377H0.527624C0.527499 13.4376 0.527297 13.4375 0.527014 13.4374C0.525686 13.4368 0.521914 13.4348 0.517024 13.4297L0.517066 13.4296L0.511672 13.4242C0.508953 13.4214 0.5 13.41 0.5 13.3849V6.94279C0.5 6.92365 0.507169 6.90837 0.517024 6.89805L0.517066 6.89809L0.522282 6.89246C0.523144 6.89152 0.523821 6.89098 0.524222 6.89069L0.524816 6.89032L0.524837 6.89031L0.525008 6.89027C0.525169 6.89023 0.525952 6.89008 0.527569 6.89008H3.78086C3.78098 6.89012 3.78119 6.89019 3.78147 6.89032C3.7828 6.89091 3.78657 6.89293 3.79146 6.89805Z" stroke="#32C220"/>
</svg>
