<svg width="18" height="17" viewBox="0 0 18 17" fill="none" xmlns="http://www.w3.org/2000/svg">
<path fill-rule="evenodd" clip-rule="evenodd" d="M8.98892 0.0517266C9.51298 5.40565 6.50935 7.63861 5.6582 8.15815C5.66524 8.21342 5.66875 8.27238 5.66875 8.33134V15.9698L7.06857 16.7768H14.4299C14.444 16.7768 14.4616 16.7768 14.4756 16.7804C16.1709 17.0236 16.2377 14.9233 16.2377 14.6617C16.2272 14.5291 16.2975 14.3964 16.4206 14.3411C17.4828 13.8621 17.0326 12.3588 16.9904 12.2298C16.9341 12.0787 17.0009 11.9055 17.1416 11.8318C18.5203 11.1317 17.6516 9.87156 17.5391 9.71311C17.4476 9.60994 17.4335 9.4515 17.5074 9.32622C20.0046 5.31353 12.2036 6.30473 11.7041 6.37106C11.6655 6.37842 11.6233 6.38211 11.581 6.37106C11.4157 6.33789 11.3102 6.17208 11.3419 5.9989C12.5061 -0.180412 9.82248 -0.114087 8.98189 0.0443571L8.98892 0.0517266Z" fill="#32C220"/>
<path fill-rule="evenodd" clip-rule="evenodd" d="M5.17018 16.0618V8.33122C5.17018 8.14698 5.09984 7.98117 4.98377 7.86326C4.86771 7.74166 4.70943 7.66797 4.5371 7.66797H0.633083C0.457227 7.66797 0.298956 7.74166 0.186408 7.86326C0.0703426 7.98486 0 8.15067 0 8.33122V16.0618C0 16.246 0.0703426 16.4119 0.186408 16.5298C0.302473 16.6514 0.460744 16.7251 0.633083 16.7251H4.5371C4.71295 16.7251 4.87122 16.6514 4.98377 16.5298C5.07873 16.4303 5.14204 16.3013 5.16314 16.1576C5.16314 16.1355 5.16314 16.1097 5.17018 16.0876C5.17018 16.0802 5.17018 16.0692 5.17018 16.0618Z" fill="#32C220"/>
</svg>
