<svg width="14" height="16" viewBox="0 0 14 16" fill="none" xmlns="http://www.w3.org/2000/svg">
<g clip-path="url(#clip0_1304_1206)">
<path d="M12.9262 5.4544C12.8336 5.5264 11.1982 6.4496 11.1982 8.5024C11.1982 10.8768 13.2792 11.7168 13.3414 11.7376C13.3319 11.7888 13.0109 12.888 12.2443 14.008C11.5607 14.9936 10.8468 15.9776 9.76085 15.9776C8.67486 15.9776 8.39537 15.3456 7.14169 15.3456C5.91994 15.3456 5.48554 15.9984 4.49218 15.9984C3.49881 15.9984 2.80569 15.0864 2.00876 13.9664C1.08567 12.6512 0.339844 10.608 0.339844 8.6688C0.339844 5.5584 2.35852 3.9088 4.34525 3.9088C5.4009 3.9088 6.28088 4.6032 6.94365 4.6032C7.57449 4.6032 8.55827 3.8672 9.75925 3.8672C10.2144 3.8672 11.8498 3.9088 12.9262 5.4544ZM9.18911 2.5504C9.68579 1.96 10.0371 1.1408 10.0371 0.3216C10.0371 0.208 10.0276 0.0928 10.0068 0C9.19869 0.0304 8.23726 0.5392 7.65753 1.2128C7.20237 1.7312 6.77756 2.5504 6.77756 3.3808C6.77756 3.5056 6.79832 3.6304 6.8079 3.6704C6.85901 3.68 6.94206 3.6912 7.0251 3.6912C7.75016 3.6912 8.66208 3.2048 9.18911 2.5504Z" fill="#363636"/>
</g>
<defs>
<clipPath id="clip0_1304_1206">
<rect width="13" height="16" fill="white" transform="translate(0.339844)"/>
</clipPath>
</defs>
</svg>
