<svg width="17" height="16" viewBox="0 0 17 16" fill="none" xmlns="http://www.w3.org/2000/svg">
<path fill-rule="evenodd" clip-rule="evenodd" d="M16.3402 8.18178C16.3402 7.6145 16.2893 7.06905 16.1947 6.54541H8.66016V9.63996H12.9656C12.7802 10.64 12.2165 11.4872 11.3693 12.0545V14.0618H13.9547C15.4674 12.6691 16.3402 10.6181 16.3402 8.18178Z" fill="#363636"/>
<path fill-rule="evenodd" clip-rule="evenodd" d="M8.66082 16C10.8208 16 12.6317 15.2837 13.9554 14.0618L11.3699 12.0546C10.6536 12.5346 9.73719 12.8182 8.66082 12.8182C6.57718 12.8182 4.81354 11.4109 4.18445 9.52002H1.51172V11.5928C2.82809 14.2073 5.53355 16 8.66082 16Z" fill="#363636"/>
<path fill-rule="evenodd" clip-rule="evenodd" d="M4.1838 9.51996C4.0238 9.03996 3.93289 8.52724 3.93289 7.99996C3.93289 7.47269 4.0238 6.95996 4.1838 6.47996V4.40723H1.51107C0.969248 5.48723 0.660156 6.70905 0.660156 7.99996C0.660156 9.29087 0.969248 10.5127 1.51107 11.5927L4.1838 9.51996Z" fill="#363636"/>
<path fill-rule="evenodd" clip-rule="evenodd" d="M8.66082 3.18183C9.83537 3.18183 10.8899 3.58546 11.719 4.37819L14.0136 2.08364C12.6281 0.792729 10.8172 0 8.66082 0C5.53355 0 2.82809 1.79273 1.51172 4.40728L4.18445 6.48001C4.81354 4.5891 6.57718 3.18183 8.66082 3.18183Z" fill="#363636"/>
</svg>
