<svg xmlns="http://www.w3.org/2000/svg" width="16" height="16" viewBox="0 0 12 12"><mask id="b"><g clip-path="url(#a)"><path transform="matrix(1 0 0 -1 0 12)" d="M0 12h12V0H0v12z"/></g>&quot;/&gt;</mask><clipPath id="a"><path transform="matrix(1 0 0 -1 0 12)" d="M0 0h12v12H0z"/></clipPath><g mask="url(#b)"><clipPath id="c"><path transform="matrix(1 0 0 -1 0 12)" d="M0 0h12v12H0z"/></clipPath><g clip-path="url(#c)"><clipPath id="d"><path transform="matrix(1 0 0 -1 0 12)" d="m11.225 7.892-3.105.443-1.39 2.757c-.17.339-.436.533-.73.533s-.56-.194-.731-.533L3.88 8.335.774 7.892C.393 7.838.122 7.65.031 7.375c-.09-.273.015-.582.291-.845L2.57 4.384l-.53-3.032c-.068-.388.047-.62.157-.747a.677.677 0 0 1 .525-.23c.157 0 .326.045.5.135L6 1.941 8.778.51c.174-.09.343-.135.501-.135.21 0 .397.083.525.23.109.128.225.36.157.747L9.43 4.384l2.247 2.146c.276.263.382.572.291.845-.091.275-.361.463-.742.518z" fill-rule="evenodd"/></clipPath><g clip-path="url(#d)"><path d="m11.225 4.108-.14.99.494.07.353-.353-.707-.707zM8.12 3.665l-.893.45.235.467.517.073.141-.99zM6.73.908l-.893.45.893-.45zm-1.461 0L4.376.456v.002l.893.45zM3.88 3.665l.141.99.518-.073.235-.467-.894-.45zm-3.106.443.14.99h.001l-.141-.99zm-.743.517-.949-.314v.001l.95.313zm.291.845.691-.723-.69.723zM2.57 7.616l.985.173.092-.527-.386-.369-.69.723zm-.53 3.032-.986-.173v.001l.985.172zm.157.747.758-.652-.002-.002-.756.654zm1.025.095-.458-.889h-.001l.459.889zM6 10.059l.458-.889L6 8.934l-.458.236.458.889zm2.778 1.431.46-.888-.002-.001-.458.889zm1.026-.095.757.653.004-.004-.761-.65zm.157-.747-.985.172v.001l.985-.173zM9.43 7.616l-.69-.723-.388.37.093.526.985-.173zm2.247-2.146-.69-.724.69.724zm.291-.845.95-.315v-.002l-.95.317zm-.742-.518.142-.99-.495-.071-.354.354.707.707zm.14-.99-3.105-.442-.282 1.98 3.105.443.282-1.98zm-2.353.098L7.623.457l-1.786.9 1.39 2.758 1.786-.9zM7.623.458C7.343-.102 6.787-.625 6-.625v2a.338.338 0 0 1-.108-.018.262.262 0 0 1-.07-.035c-.025-.018-.012-.019.015.035l1.787-.9zM6-.625c-.786 0-1.341.523-1.624 1.081l1.785.903c.028-.055.042-.055.016-.036a.26.26 0 0 1-.069.034.338.338 0 0 1-.108.018v-2zM4.375.458 2.987 3.216l1.787.899 1.388-2.758-1.787-.9zM3.74 2.675l-3.106.443.282 1.98 3.106-.443-.282-1.98zm-3.105.443c-.611.086-1.302.435-1.552 1.193l1.899.627a.367.367 0 0 1-.057.109.274.274 0 0 1-.059.057c-.026.018-.018.003.05-.006l-.281-1.98zM-.92 4.312c-.249.76.1 1.45.551 1.881l1.38-1.447c-.045-.043-.039-.055-.026-.02A.292.292 0 0 1 1 4.814c0 .04-.005.082-.019.123l-1.9-.625zm.55 1.881L1.88 8.339l1.38-1.446-2.247-2.146-1.381 1.446zm1.954 1.25-.53 3.032 1.97.345.53-3.031-1.97-.345zm-.531 3.033c-.12.686.082 1.22.386 1.572l1.513-1.307a.294.294 0 0 1 .062.11l.004.02c0-.003 0-.02.005-.052l-1.97-.343zm.384 1.57c.334.389.806.579 1.284.579v-2c.023 0 .062.005.108.025s.09.052.125.093l-1.517 1.303zm1.284.579c.349 0 .674-.1.96-.247l-.92-1.776c-.062.032-.074.023-.04.023v2zm.958-.246 2.778-1.431-.916-1.778-2.778 1.431.916 1.778zm1.862-1.431 2.778 1.431.916-1.778L6.458 9.17l-.916 1.778zm2.777 1.43c.285.148.61.247.96.247v-2c.033 0 .02.01-.042-.023l-.918 1.776zm.96.247c.477 0 .95-.192 1.282-.577l-1.514-1.307a.321.321 0 0 1 .232-.116v2zm1.286-.581c.296-.348.502-.88.38-1.57l-1.97.347a.259.259 0 0 1 .006.05l.004-.02a.308.308 0 0 1 .058-.104l1.522 1.297zm.38-1.569-.53-3.031-1.97.345.53 3.031 1.97-.345zM10.12 8.34l2.248-2.146-1.381-1.446-2.248 2.146 1.381 1.446zm2.248-2.146c.448-.428.802-1.12.55-1.883l-1.899.63A.376.376 0 0 1 11 4.813c.001-.04.008-.07.015-.088.012-.035.018-.023-.028.02l1.38 1.447zm.55-1.885c-.252-.754-.939-1.103-1.55-1.19l-.284 1.979c.067.01.075.024.05.007a.272.272 0 0 1-.058-.057.363.363 0 0 1-.056-.106l1.897-.633zm-2.4-.908 1.414 1.415h.001L10.52 3.4z" fill="#ffb143"/></g></g></g></svg>