<svg width="18" height="16" viewBox="0 0 18 16" fill="none" xmlns="http://www.w3.org/2000/svg">
<path fill-rule="evenodd" clip-rule="evenodd" d="M1.27629 1.69612C2.14578 0.630929 3.41338 0 4.95 0C5.97887 0 6.96397 0.583715 7.72065 1.1764C8.18784 1.5423 8.62326 1.95607 9 2.3527C9.37674 1.95607 9.81216 1.5423 10.2794 1.1764C11.0361 0.583715 12.0211 0 13.05 0C14.6141 0 15.8816 0.700392 16.7387 1.80806C17.581 2.89649 18 4.33745 18 5.82829C18 7.17439 17.3597 8.46622 16.5543 9.57881C15.7366 10.7087 14.6659 11.7666 13.6262 12.6644C12.5817 13.5662 11.5416 14.3293 10.7648 14.8658C10.3756 15.1346 10.0507 15.3479 9.82179 15.4948C9.70731 15.5681 9.61668 15.625 9.55404 15.664C9.52263 15.6835 9.49833 15.6985 9.48141 15.7089L9.46161 15.721L9.45612 15.7243L9.45441 15.7254C9.45441 15.7254 9.45351 15.7259 9 14.9204C8.54649 15.7259 8.54613 15.7257 8.54613 15.7257L8.54388 15.7243L8.53821 15.7209L8.51841 15.7088C8.5014 15.6983 8.47701 15.6833 8.4456 15.6637C8.38278 15.6247 8.29197 15.5676 8.1774 15.4938C7.94817 15.3464 7.62282 15.1321 7.23321 14.8616C6.4558 14.3215 5.4147 13.5518 4.36935 12.6372C3.32844 11.7265 2.25719 10.6495 1.43931 9.49144C0.631485 8.3476 0 7.0249 0 5.64216C0 4.14908 0.420642 2.74435 1.27629 1.69612ZM9 14.9204L8.54613 15.7257L9 16L9.45351 15.7259L9 14.9204ZM9.00045 13.8276C9.20259 13.6963 9.46368 13.5231 9.76644 13.314C10.5084 12.8014 11.4933 12.0783 12.4738 11.2316C13.459 10.3809 14.4134 9.42812 15.1144 8.45978C15.8278 7.4741 16.2 6.58037 16.2 5.82829C16.2 4.68173 15.8761 3.67481 15.3344 2.97471C14.8075 2.29384 14.05 1.86505 13.05 1.86505C12.6303 1.86505 12.0442 2.1321 11.3648 2.66418C10.716 3.17235 10.1125 3.81858 9.6831 4.33726L9 5.16237L8.3169 4.33726C7.88751 3.81858 7.28397 3.17235 6.6352 2.66418C5.95588 2.1321 5.36968 1.86505 4.95 1.86505C3.92252 1.86505 3.16512 2.27023 2.65063 2.90052C2.12231 3.54777 1.8 4.49785 1.8 5.64216C1.8 6.45066 2.18102 7.38337 2.89194 8.39003C3.59281 9.38252 4.54656 10.3512 5.53065 11.2122C6.5103 12.0694 7.49421 12.7975 8.23554 13.3124C8.53794 13.5225 8.79858 13.6961 9.00045 13.8276Z" fill="#FF6C36"/>
</svg>
