<svg width="20" height="18" viewBox="0 0 20 18" fill="none" xmlns="http://www.w3.org/2000/svg">
<path fill-rule="evenodd" clip-rule="evenodd" d="M1.4181 1.99568C2.3842 0.812139 3.79264 0.111107 5.5 0.111107C6.64319 0.111107 7.73774 0.759679 8.5785 1.41822C9.0976 1.82477 9.5814 2.28451 10 2.72522C10.4186 2.28451 10.9024 1.82477 11.4215 1.41822C12.2623 0.759679 13.3568 0.111107 14.5 0.111107C16.2379 0.111107 17.6462 0.88932 18.5986 2.12006C19.5344 3.32943 20 4.93049 20 6.58698C20 8.08265 19.2886 9.51801 18.3937 10.7542C17.4851 12.0096 16.2955 13.1851 15.1402 14.1826C13.9797 15.1847 12.824 16.0325 11.9609 16.6286C11.5285 16.9273 11.1674 17.1643 10.9131 17.3275C10.7859 17.409 10.6852 17.4723 10.6156 17.5156C10.5807 17.5372 10.5537 17.5539 10.5349 17.5654L10.5129 17.5789L10.5068 17.5826L10.5049 17.5837C10.5049 17.5837 10.5039 17.5844 10 16.6893C9.4961 17.5844 9.4957 17.5841 9.4957 17.5841L9.4932 17.5825L9.4869 17.5788L9.4649 17.5653C9.446 17.5537 9.4189 17.537 9.384 17.5153C9.3142 17.4718 9.2133 17.4084 9.086 17.3265C8.8313 17.1627 8.4698 16.9245 8.0369 16.624C7.17311 16.0239 6.01633 15.1687 4.85483 14.1525C3.69827 13.1406 2.50799 11.9439 1.59923 10.6571C0.70165 9.38622 0 7.91656 0 6.38018C0 4.72119 0.46738 3.16038 1.4181 1.99568ZM10 16.6893L9.4957 17.5841L10 17.8889L10.5039 17.5844L10 16.6893ZM10.0005 15.4751C10.2251 15.3292 10.5152 15.1368 10.8516 14.9044C11.676 14.3349 12.7703 13.5314 13.8598 12.5907C14.9545 11.6454 16.0149 10.5868 16.7938 9.51086C17.5864 8.41566 18 7.42263 18 6.58698C18 5.31303 17.6401 4.19422 17.0382 3.41634C16.4528 2.65981 15.6111 2.18339 14.5 2.18339C14.0337 2.18339 13.3824 2.48011 12.6276 3.07131C11.9067 3.63594 11.2361 4.35397 10.759 4.93029L10 5.84707L9.241 4.93029C8.7639 4.35397 8.0933 3.63594 7.37244 3.07131C6.61764 2.48011 5.96631 2.18339 5.5 2.18339C4.35836 2.18339 3.5168 2.63359 2.94515 3.33391C2.35812 4.05307 2 5.10872 2 6.38018C2 7.2785 2.42335 8.31485 3.21327 9.43336C3.99201 10.5361 5.05173 11.6125 6.14517 12.5691C7.23367 13.5216 8.3269 14.3306 9.1506 14.9026C9.4866 15.1361 9.7762 15.329 10.0005 15.4751Z" fill="#FF5C20"/>
</svg>
