<svg width="18" height="17" viewBox="0 0 18 17" fill="none" xmlns="http://www.w3.org/2000/svg">
<path d="M9.52815 0.501017C9.85845 0.514647 10.2386 0.623182 10.5359 0.970236C11.009 1.52258 11.4291 2.84557 10.8525 5.90632L10.852 5.909C10.7765 6.32214 11.0234 6.76128 11.4717 6.85858C11.6012 6.88939 11.7143 6.87725 11.7835 6.86517C12.0788 6.8264 14.0581 6.58262 15.66 6.81388C16.498 6.93486 17.082 7.16692 17.3406 7.48047C17.4521 7.6156 17.5146 7.77916 17.4986 8.0099C17.4816 8.25673 17.372 8.60061 17.0849 9.06204L17.0847 9.06196L17.0786 9.07228C16.9057 9.36558 16.9233 9.74618 17.1441 10.018C17.2053 10.1065 17.3677 10.3618 17.4063 10.6384C17.4253 10.7743 17.4112 10.8947 17.3569 11.0022C17.3034 11.1081 17.187 11.249 16.9172 11.386L16.9172 11.386L16.9116 11.3889C16.5511 11.5778 16.3838 12.0082 16.519 12.3911C16.5383 12.4525 16.6336 12.7844 16.6219 13.1377C16.6098 13.5031 16.4962 13.7592 16.2175 13.8852C16.2173 13.8852 16.2172 13.8853 16.217 13.8854L9.52815 0.501017ZM9.52815 0.501017C9.82395 5.34611 7.29053 7.65129 6.17071 8.42233V15.6809L7.20432 16.2768H14.4319H14.4331C14.4398 16.2767 14.4607 16.2767 14.4838 16.2781C14.5007 16.279 14.5285 16.2812 14.5621 16.2874C14.8686 16.3287 15.0582 16.2631 15.1865 16.1756C15.3278 16.0793 15.4445 15.9216 15.5356 15.7115C15.7158 15.2958 15.7382 14.81 15.7396 14.6754L9.52815 0.501017Z" stroke="#32C220"/>
<path d="M4.62209 8.20849L4.62204 8.20853L4.62744 8.21401C4.6495 8.23643 4.67018 8.27544 4.67018 8.33122V16.0419C4.66675 16.0666 4.66492 16.0889 4.66396 16.1073C4.65553 16.1398 4.64018 16.1656 4.62209 16.1845L4.62204 16.1845L4.61683 16.1901C4.59574 16.2129 4.56903 16.2251 4.5371 16.2251H0.633083C0.607414 16.2251 0.576963 16.2148 0.548092 16.1845L0.548134 16.1845L0.54274 16.179C0.520677 16.1566 0.5 16.1176 0.5 16.0618V8.33122C0.5 8.282 0.518893 8.23908 0.548092 8.20849L0.548134 8.20853L0.55335 8.2029C0.574442 8.18011 0.601148 8.16797 0.633083 8.16797H4.5371C4.56276 8.16797 4.59322 8.17824 4.62209 8.20849Z" stroke="#32C220"/>
</svg>
