<svg width="12" height="13" viewBox="0 0 12 13" fill="none" xmlns="http://www.w3.org/2000/svg">
<g clip-path="url(#clip0_952_12463)">
<g clip-path="url(#clip1_952_12463)">
<path d="M0.0314553 5.1245L0.506185 5.28145C0.517123 5.24836 0.57792 5.14053 0.84412 5.1028L0.844465 5.10275L3.95097 4.66025L4.2096 4.62341L4.32706 4.39007L5.71493 1.63308C5.71498 1.63297 5.71504 1.63286 5.7151 1.63274C5.83033 1.40501 5.95188 1.375 5.99996 1.375C6.04806 1.375 6.16944 1.40502 6.28384 1.63229L6.28395 1.63251L7.6737 4.39026L7.79119 4.62341L8.04966 4.66025L11.1547 5.10275L11.1955 5.10856C11.4263 5.15118 11.4827 5.24882 11.494 5.28221C11.5038 5.3123 11.52 5.42894 11.3324 5.60792L11.3321 5.60815L9.08439 7.75465L8.89109 7.93924L8.9372 8.20252L9.4682 11.234L9.46828 11.2344C9.49074 11.362 9.47925 11.4409 9.46709 11.4845C9.45516 11.5273 9.43776 11.5533 9.42451 11.5691C9.39925 11.5978 9.35444 11.625 9.27895 11.625C9.21622 11.625 9.12593 11.6071 9.00767 11.5459L9.00692 11.5455L6.22892 10.1145L5.99996 9.99656L5.77099 10.1145L2.99299 11.5455L2.99224 11.5459C2.87379 11.6072 2.78351 11.625 2.72171 11.625C2.6432 11.625 2.60053 11.5975 2.57606 11.569L2.57507 11.5679C2.56327 11.5542 2.5455 11.5289 2.53322 11.4849C2.521 11.441 2.50951 11.3617 2.53176 11.2337C2.53177 11.2336 2.53179 11.2336 2.5318 11.2335L3.06271 8.20252L3.10882 7.93924L2.91552 7.75465L0.667771 5.60815L0.667553 5.60794C0.479446 5.42852 0.496191 5.31184 0.506444 5.28066L0.0314553 5.1245ZM0.0314553 5.1245C-0.0585447 5.39825 0.0464553 5.7065 0.322455 5.96975M0.0314553 5.1245C0.122205 4.85 0.392955 4.66175 0.773955 4.60775L3.88046 4.16525L5.26871 1.4075C5.43971 1.06925 5.70596 0.875 5.99996 0.875C6.29396 0.875 6.5602 1.06925 6.73045 1.4075L0.322455 5.96975M0.322455 5.96975L2.57021 8.11625L0.322455 5.96975Z" stroke="#FFB143"/>
</g>
</g>
<defs>
<clipPath id="clip0_952_12463">
<rect width="12" height="12" fill="white" transform="translate(0 0.5)"/>
</clipPath>
<clipPath id="clip1_952_12463">
<rect width="12" height="12" fill="white" transform="translate(0 0.5)"/>
</clipPath>
</defs>
</svg>
