<svg width="15" height="15" viewBox="0 0 15 15" fill="none" xmlns="http://www.w3.org/2000/svg">
<path d="M10.9062 14.2189C10.2 14.2189 9.45625 14.0501 8.6875 13.7251C7.9375 13.4064 7.18125 12.9689 6.44375 12.4376C5.7125 11.9001 5.00625 11.3001 4.3375 10.6439C3.675 9.97512 3.075 9.26887 2.54375 8.54387C2.00625 7.79387 1.575 7.04387 1.26875 6.31887C0.94375 5.54387 0.78125 4.79387 0.78125 4.08762C0.78125 3.60012 0.86875 3.13762 1.0375 2.70637C1.2125 2.26262 1.49375 1.85012 1.875 1.49387C2.35625 1.01887 2.90625 0.781372 3.49375 0.781372C3.7375 0.781372 3.9875 0.837622 4.2 0.937622C4.44375 1.05012 4.65 1.21887 4.8 1.44387L6.25 3.48762C6.38125 3.66887 6.48125 3.84387 6.55 4.01887C6.63125 4.20637 6.675 4.39387 6.675 4.57512C6.675 4.81262 6.60625 5.04387 6.475 5.26262C6.38125 5.43137 6.2375 5.61262 6.05625 5.79387L5.63125 6.23762C5.6375 6.25637 5.64375 6.26887 5.65 6.28137C5.725 6.41262 5.875 6.63762 6.1625 6.97512C6.46875 7.32512 6.75625 7.64387 7.04375 7.93762C7.4125 8.30012 7.71875 8.58762 8.00625 8.82512C8.3625 9.12512 8.59375 9.27512 8.73125 9.34387L8.71875 9.37512L9.175 8.92512C9.36875 8.73137 9.55625 8.58762 9.7375 8.49387C10.0813 8.28137 10.5188 8.24387 10.9563 8.42512C11.1188 8.49387 11.2938 8.58762 11.4813 8.71887L13.5563 10.1939C13.7875 10.3501 13.9563 10.5501 14.0562 10.7876C14.15 11.0251 14.1937 11.2439 14.1937 11.4626C14.1937 11.7626 14.125 12.0626 13.9937 12.3439C13.8625 12.6251 13.7 12.8689 13.4937 13.0939C13.1375 13.4876 12.75 13.7689 12.3 13.9501C11.8688 14.1251 11.4 14.2189 10.9062 14.2189ZM3.49375 1.71887C3.15 1.71887 2.83125 1.86887 2.525 2.16887C2.2375 2.43762 2.0375 2.73137 1.9125 3.05012C1.78125 3.37512 1.71875 3.71887 1.71875 4.08762C1.71875 4.66887 1.85625 5.30012 2.13125 5.95012C2.4125 6.61262 2.80625 7.30012 3.30625 7.98762C3.80625 8.67512 4.375 9.34387 5 9.97512C5.625 10.5939 6.3 11.1689 6.99375 11.6751C7.66875 12.1689 8.3625 12.5689 9.05 12.8564C10.1187 13.3126 11.1188 13.4189 11.9438 13.0751C12.2625 12.9439 12.5437 12.7439 12.8 12.4564C12.9437 12.3001 13.0563 12.1314 13.15 11.9314C13.225 11.7751 13.2625 11.6126 13.2625 11.4501C13.2625 11.3501 13.2438 11.2501 13.1938 11.1376C13.175 11.1001 13.1375 11.0314 13.0188 10.9501L10.9438 9.47512C10.8188 9.38762 10.7062 9.32512 10.6 9.28137C10.4625 9.22512 10.4062 9.16887 10.1937 9.30012C10.0687 9.36262 9.95625 9.45637 9.83125 9.58137L9.35625 10.0501C9.1125 10.2876 8.7375 10.3439 8.45 10.2376L8.28125 10.1626C8.025 10.0251 7.725 9.81262 7.39375 9.53137C7.09375 9.27512 6.76875 8.97512 6.375 8.58762C6.06875 8.27512 5.7625 7.94387 5.44375 7.57512C5.15 7.23137 4.9375 6.93762 4.80625 6.69387L4.73125 6.50637C4.69375 6.36262 4.68125 6.28137 4.68125 6.19387C4.68125 5.96887 4.7625 5.76887 4.91875 5.61262L5.3875 5.12512C5.5125 5.00012 5.60625 4.88137 5.66875 4.77512C5.71875 4.69387 5.7375 4.62512 5.7375 4.56262C5.7375 4.51262 5.71875 4.43762 5.6875 4.36262C5.64375 4.26262 5.575 4.15012 5.4875 4.03137L4.0375 1.98137C3.975 1.89387 3.9 1.83137 3.80625 1.78762C3.70625 1.74387 3.6 1.71887 3.49375 1.71887ZM8.71875 9.38137L8.61875 9.80637L8.7875 9.36887C8.75625 9.36262 8.73125 9.36887 8.71875 9.38137Z" fill="#32C220"/>
<path d="M11.5625 6.09363C11.3063 6.09363 11.0938 5.88113 11.0938 5.62488C11.0938 5.39988 10.8688 4.93113 10.4938 4.53113C10.125 4.13738 9.71875 3.90613 9.375 3.90613C9.11875 3.90613 8.90625 3.69363 8.90625 3.43738C8.90625 3.18113 9.11875 2.96863 9.375 2.96863C9.98125 2.96863 10.6187 3.29363 11.175 3.88738C11.6937 4.44363 12.0312 5.12488 12.0312 5.62488C12.0312 5.88113 11.8187 6.09363 11.5625 6.09363Z" fill="#32C220"/>
<path d="M13.75 6.09387C13.4938 6.09387 13.2812 5.88137 13.2812 5.62512C13.2812 3.46887 11.5312 1.71887 9.375 1.71887C9.11875 1.71887 8.90625 1.50637 8.90625 1.25012C8.90625 0.993872 9.11875 0.781372 9.375 0.781372C12.0438 0.781372 14.2188 2.95637 14.2188 5.62512C14.2188 5.88137 14.0062 6.09387 13.75 6.09387Z" fill="#32C220"/>
</svg>
