<svg width="13" height="15" viewBox="0 0 13 15" fill="none" xmlns="http://www.w3.org/2000/svg">
<path d="M6.50161 8.02326C4.2955 8.02326 2.5 6.22326 2.5 4.01163C2.5 1.8 4.2955 0 6.50161 0C8.70771 0 10.5032 1.8 10.5032 4.01163C10.5032 6.22326 8.70771 8.02326 6.50161 8.02326ZM6.50161 1.04651C4.87313 1.04651 3.5439 2.37907 3.5439 4.01163C3.5439 5.64419 4.87313 6.97674 6.50161 6.97674C8.13009 6.97674 9.45932 5.64419 9.45932 4.01163C9.45932 2.37907 8.13009 1.04651 6.50161 1.04651Z" fill="#32C220"/>
<path d="M12.4781 15.0001C12.1927 15.0001 11.9561 14.7628 11.9561 14.4768C11.9561 12.0698 9.50642 10.1163 6.5 10.1163C3.49357 10.1163 1.0439 12.0698 1.0439 14.4768C1.0439 14.7628 0.807281 15.0001 0.521949 15.0001C0.236617 15.0001 0 14.7628 0 14.4768C0 11.4977 2.91595 9.06982 6.5 9.06982C10.084 9.06982 13 11.4977 13 14.4768C13 14.7628 12.7634 15.0001 12.4781 15.0001Z" fill="#32C220"/>
</svg>
