<svg width="18" height="17" viewBox="0 0 18 17" fill="none" xmlns="http://www.w3.org/2000/svg">
<path d="M8.47185 16.2998C8.14155 16.2861 7.76138 16.1776 7.46411 15.8305C6.991 15.2782 6.57088 13.9552 7.14753 10.8945L7.14802 10.8918C7.22353 10.4786 6.97658 10.0395 6.52831 9.9422C6.39876 9.91139 6.28568 9.92354 6.21649 9.93561C5.92117 9.97438 3.94186 10.2182 2.33999 9.9869C1.50196 9.86592 0.918031 9.63386 0.659375 9.32031C0.547901 9.18518 0.485385 9.02162 0.50136 8.79088C0.518449 8.54405 0.627995 8.20017 0.915148 7.73874L0.91527 7.73882L0.921357 7.7285C1.09427 7.4352 1.07666 7.0546 0.855865 6.78277C0.794714 6.69424 0.632265 6.43896 0.593684 6.16235C0.574728 6.02645 0.588789 5.90608 0.643125 5.79854C0.696596 5.6927 0.812975 5.55177 1.0828 5.41476L1.08282 5.41479L1.08843 5.41185C1.44895 5.223 1.61622 4.79256 1.481 4.40967C1.4617 4.34825 1.36644 4.01638 1.37813 3.66311C1.39022 3.2977 1.50377 3.04157 1.78254 2.91563C1.78269 2.91556 1.78283 2.91549 1.78298 2.91543L8.47185 16.2998ZM8.47185 16.2998C8.17605 11.4547 10.7095 9.14949 11.8293 8.37845V1.11987L10.7957 0.524021H3.56812H3.56693C3.5602 0.524033 3.53931 0.524061 3.51621 0.522717C3.49933 0.521734 3.47154 0.519585 3.43786 0.513386C3.13136 0.472073 2.94176 0.537714 2.81353 0.625132C2.67224 0.721455 2.55547 0.879162 2.46439 1.08926C2.2842 1.50493 2.26178 1.99077 2.2604 2.12542L8.47185 16.2998Z" stroke="#FF6C36"/>
<path d="M13.3779 8.59034L13.378 8.5903L13.3726 8.58482C13.3505 8.5624 13.3298 8.52339 13.3298 8.46761V0.756907C13.3333 0.732227 13.3351 0.709892 13.336 0.691567C13.3445 0.658982 13.3598 0.633246 13.3779 0.614291L13.378 0.614332L13.3832 0.608697C13.4043 0.585909 13.431 0.573769 13.4629 0.573769H17.3669C17.3926 0.573769 17.423 0.584044 17.4519 0.614291L17.4519 0.614332L17.4573 0.619812C17.4793 0.642226 17.5 0.681241 17.5 0.737021V8.46761C17.5 8.51683 17.4811 8.55975 17.4519 8.59034L17.4519 8.5903L17.4466 8.59593C17.4256 8.61872 17.3989 8.63086 17.3669 8.63086H13.4629C13.4372 8.63086 13.4068 8.62058 13.3779 8.59034Z" stroke="#FF6C36"/>
</svg>
