<svg width="15" height="11" viewBox="0 0 15 11" fill="none" xmlns="http://www.w3.org/2000/svg">
<path d="M14.6299 6.26947C14.5315 6.31971 14.4269 6.3437 14.3236 6.3437C14.0773 6.3437 13.8396 6.20792 13.7201 5.97257C13.6673 5.86802 13.6119 5.76527 13.5541 5.66435C12.3106 3.48372 10.022 2.14357 7.49977 2.14357C4.97799 2.14357 2.6894 3.48372 1.44587 5.66435C1.38814 5.76527 1.33266 5.86802 1.27989 5.97257C1.1103 6.30659 0.703004 6.43965 0.370134 6.26947C0.0368122 6.09929 -0.0957944 5.6906 0.0737981 5.35658C0.760287 4.0033 1.8022 2.86139 3.08677 2.0544C4.40787 1.22434 5.9342 0.785767 7.49977 0.785767C9.0658 0.785767 10.5921 1.22434 11.9132 2.0544C13.1978 2.86139 14.2397 4.0033 14.9262 5.35658C15.0958 5.6906 14.9632 6.09929 14.6299 6.26947Z" fill="#757575"/>
<path d="M11.4037 6.88959C11.4037 8.72579 9.65592 10.2144 7.49948 10.2144C5.3435 10.2144 3.5957 8.72579 3.5957 6.88959C3.5957 5.05338 5.3435 3.56433 7.49948 3.56433C7.80258 3.56433 8.09757 3.59375 8.38082 3.64942C7.88422 3.99792 7.56714 4.52565 7.56714 5.11675C7.56714 6.16588 8.56575 7.01631 9.79755 7.01631C10.4114 7.01631 10.9685 6.8045 11.3717 6.46278C11.3929 6.60219 11.4037 6.74475 11.4037 6.88959Z" fill="#757575"/>
</svg>
