<svg xmlns="http://www.w3.org/2000/svg" width="16" height="15" viewBox="0 0 14.824 14.195">
<path d="M6.515.557a1 1 0 0 1 1.794 0l1.515 3.071a1 1 0 0 0 .753.547l3.39.493a1 1 0 0 1 .554 1.705l-2.453 2.39a1 1 0 0 0-.287.886l.579 3.375a1 1 0 0 1-1.451 1.055l-3.032-1.594a1 1 0 0 0-.93 0l-3.031 1.594a1 1 0 0 1-1.451-1.055l.578-3.375a1 1 0 0 0-.287-.885L.304 6.374a1 1 0 0 1 .554-1.706l3.389-.493A1 1 0 0 0 5 3.628L6.515.558z" fill="transparent"/><clipPath id="a"><path transform="matrix(1 0 0 -1 0 14.195)" d="M6.515 13.638a1 1 0 0 0 1.794 0l1.515-3.07a1 1 0 0 1 .753-.548l3.39-.492a1 1 0 0 0 .554-1.706l-2.453-2.39a1 1 0 0 1-.287-.886l.579-3.375A1 1 0 0 0 10.909.117L7.877 1.71a1 1 0 0 1-.93 0L3.916.117A1 1 0 0 0 2.465 1.17l.578 3.375a1 1 0 0 1-.287.885L.304 7.821a1 1 0 0 0 .554 1.707l3.389.492a1 1 0 0 1 .753.547l1.515 3.071z" fill-rule="evenodd"/></clipPath><g clip-path="url(#a)"><path d="m4.247 4.175-.144-.99.144.99zM5 3.628l-.897-.442.897.442zM3.043 9.65l-.985-.17.985.17zm-.287-.885.698-.716-.698.716zm1.16 5.315-.466-.886.466.886zm-1.451-1.055-.986-.169.986.17zm5.412-.54-.465.886.465-.885zm-.93 0 .465.886-.465-.885zm5.413.54-.986.17.986-.17zm-1.451 1.055-.466.885.466-.885zm.872-4.43.985-.17-.985.17zm2.74-3.276-.698-.716.698.716zM9.824 3.628l.897-.442-.897.442zM8.31.558 7.412 1 8.31.557zM7.412 1l1.516 3.07 1.793-.884L9.206.115 7.412 1zm3.022 4.165 3.389.492.287-1.979-3.389-.492-.287 1.979zm3.389.492-2.453 2.39 1.396 1.433 2.453-2.39-1.396-1.433zm-3.028 4.161.579 3.375 1.971-.338-.579-3.375-1.97.338zm.579 3.375L8.343 11.6l-.93 1.77 3.03 1.594.931-1.77zM6.481 11.6l-3.03 1.593.93 1.77 3.031-1.593-.93-1.77zm-3.03 1.593.578-3.375-1.971-.338-.579 3.375 1.971.338zm.003-5.145-2.452-2.39-1.396 1.431 2.452 2.39 1.396-1.431zm-2.452-2.39 3.389-.493-.288-1.98-3.389.493.288 1.98zM5.896 4.07 7.412 1 5.62.115l-1.516 3.07 1.793.886zM4.391 5.165A2 2 0 0 0 5.896 4.07l-1.793-.885.288 1.979zM1 5.657.715 3.678c-1.64.238-2.295 2.254-1.108 3.411l1.396-1.432zM4.03 9.818a2 2 0 0 0-.575-1.77L2.058 9.48l1.971.338zm-.579 3.375-1.971-.338c-.28 1.634 1.435 2.88 2.902 2.109l-.93-1.77zM8.343 11.6a2 2 0 0 0-1.862 0l.931 1.77.93-1.77zm3.031 1.593-.93 1.77c1.467.772 3.181-.474 2.901-2.108l-1.971.338zm-.004-5.145a2 2 0 0 0-.575 1.77l1.971-.338-1.396-1.432zm2.453-2.39 1.396 1.431c1.187-1.157.532-3.173-1.109-3.41l-.287 1.978zM8.928 4.07a2 2 0 0 0 1.506 1.094l.287-1.98-1.793.886zM9.206.115c-.734-1.487-2.854-1.487-3.587 0L7.412 1 9.206.115z" fill="#757575"/></g></svg>                                                
