                                                    <svg width="16" height="15" viewBox="0 0 16 15" fill="none" xmlns="http://www.w3.org/2000/svg">
                                                        <path d="M14.9669 4.977L10.8269 4.387L8.97394 0.71C8.74694 0.259 8.39194 0 7.99994 0C7.60794 0 7.25294 0.259 7.02494 0.71L5.17394 4.387L1.03194 4.977C0.52394 5.049 0.16294 5.3 0.0419403 5.666C-0.0780597 6.031 0.0619403 6.442 0.42994 6.793L3.42694 9.655L2.71894 13.697C2.62894 14.214 2.78294 14.524 2.92894 14.693C3.09894 14.891 3.34694 15 3.62894 15C3.83894 15 4.06394 14.94 4.29594 14.82L7.99994 12.912L11.7039 14.82C11.9359 14.94 12.1609 15 12.3719 15C12.6519 15 12.9019 14.89 13.0719 14.693C13.2169 14.523 13.3719 14.214 13.2809 13.697L12.5729 9.655L15.5699 6.793C15.9369 6.443 16.0789 6.031 15.9579 5.666C15.8359 5.3 15.4759 5.049 14.9679 4.976L14.9669 4.977Z" fill="#FFB143"/>
                                                    </svg>