<svg width="24" height="24" viewBox="0 0 24 24" fill="none" xmlns="http://www.w3.org/2000/svg">
<path fill-rule="evenodd" clip-rule="evenodd" d="M5 4C5.55228 4 6 4.44772 6 5V11C6 12.6569 7.34315 14 9 14H16.5858L13.7929 11.2071C13.4024 10.8166 13.4024 10.1834 13.7929 9.79289C14.1834 9.40237 14.8166 9.40237 15.2071 9.79289L20.4142 15L15.2071 20.2071C14.8166 20.5976 14.1834 20.5976 13.7929 20.2071C13.4024 19.8166 13.4024 19.1834 13.7929 18.7929L16.5858 16H9C6.23858 16 4 13.7614 4 11V5C4 4.44772 4.44772 4 5 4Z" fill="#32C220"/>
</svg>
