<svg xmlns="http://www.w3.org/2000/svg" width="20" height="14pt" viewBox="0 0 15 14"><clipPath id="a"><path transform="matrix(1 0 0 -1 0 14)" d="M7.491 13.957c.437-4.462-2.066-6.323-2.775-6.755.006-.047.009-.096.009-.145V.692L5.89.019h6.135c.011 0 .026 0 .038-.003 1.412-.202 1.468 1.548 1.468 1.766a.27.27 0 0 0 .152.267c.886.4.51 1.652.475 1.76a.271.271 0 0 0 .126.331c1.15.584.425 1.634.332 1.766a.277.277 0 0 0-.027.322c2.081 3.344-4.42 2.518-4.836 2.463a.231.231 0 0 0-.102 0 .263.263 0 0 0-.2.31c.97 5.15-1.266 5.094-1.966 4.962l.005-.006z" fill-rule="evenodd"/></clipPath><g clip-path="url(#a)"><path d="m7.491.043.996-.097-.034-.344-.238-.25-.724.691zM4.716 6.798l-.521-.853-.553.337.082.643.992-.127zm.009 6.51h-1v.578l.5.289.5-.867zm1.166.673-.5.866.233.134h.267v-1zm6.173.003-.254.967.055.014.057.009.142-.99zm1.468-1.766h1v-.04l-.003-.04-.997.08zm.152-.267.41.912h.002l-.412-.912zm.475-1.76.95-.31-.006-.02-.007-.019-.937.35zm.126-.331-.452-.892-.012.006.464.886zm.332-1.766.815-.579-.031-.044-.036-.04-.748.663zm-.027-.322-.849-.529-.006.01-.006.011.861.508zM9.754 5.309l-.132-.991-.027.004-.028.005.187.982zm-.102 0 .253-.967-.028-.008-.029-.005-.196.98zm-.2-.31-.983-.185v.005l.983.18zM7.486.037 7.3-.946l-1.81.341L6.763.727l.724-.69zm-.99.104c.387 3.953-1.794 5.495-2.301 5.804l1.042 1.707c.912-.557 3.736-2.736 3.25-7.706L6.497.14zM3.724 6.925v.018h2c0-.088-.005-.18-.016-.27l-1.984.252zm0 .018v6.365h2V6.943h-2zm.501 7.232 1.167.672.999-1.733-1.167-.672-.999 1.733zm1.666.806h6.135v-2H5.89v2zm6.135 0-.04-.002a.903.903 0 0 1-.176-.028l.507-1.935a1.097 1.097 0 0 0-.214-.033c-.04-.003-.076-.002-.077-.002v2zm-.104-.007c.572.082 1.097-.029 1.53-.324.411-.28.651-.667.793-.994a3.863 3.863 0 0 0 .287-1.438h-2c0 .019-.002.12-.02.255-.02.139-.054.278-.102.388-.049.112-.087.139-.084.137.025-.017.014.015-.12-.004l-.284 1.98zm2.607-2.835a.731.731 0 0 1-.435.724l-.82-1.824a1.269 1.269 0 0 0-.739 1.258l1.994-.158zm-.433.724c.946-.427 1.152-1.32 1.17-1.868a3.465 3.465 0 0 0-.156-1.115l-1.901.623c-.003-.008.016.048.033.139.017.091.029.194.026.287a.6.6 0 0 1-.02.133l-.003.009c0-.001.006-.01.017-.021.011-.012.018-.014.011-.01l.823 1.823zm1-3.02a.73.73 0 0 1-.347.903l-.928-1.772a1.27 1.27 0 0 0-.599 1.567l1.874-.699zm-.358.908c.437-.221.783-.535.99-.944.204-.405.225-.81.18-1.137-.085-.607-.416-1.07-.476-1.155l-1.63 1.158a.91.91 0 0 1 .07.118c.033.067.05.122.055.155.003.025-.005 0 .015-.04.023-.044.028-.008-.11.062l.906 1.783zm.627-3.32a.723.723 0 0 1 .087.849l-1.723-1.016a1.277 1.277 0 0 0 .14 1.494l1.496-1.327zm.074.87c.31-.5.52-1.011.556-1.528a2.002 2.002 0 0 0-.453-1.44c-.582-.706-1.558-.951-2.29-1.057-1.57-.226-3.423.014-3.63.042L9.886 6.3c.21-.028 1.814-.228 3.08-.045.684.098.969.27 1.034.349.005.006.002.004 0-.004-.003-.007.002 0 0 .034-.006.077-.049.27-.259.608L15.44 8.3zM9.567 4.326a.775.775 0 0 1 .338.015l-.507 1.935c.244.064.45.032.543.015l-.374-1.965zm.281.002c.445.089.65.506.588.85l-1.967-.36c-.116.632.266 1.326.986 1.47l.393-1.96zm.587.855c.496-2.632.26-4.316-.58-5.297-.886-1.035-2.103-.918-2.555-.833l.37 1.966c.25-.047.501-.024.666.168.21.246.608 1.109.134 3.626l1.965.37zM6.762.727l.006.007L8.215-.647l-.006-.006L6.762.727z" fill="#32c220"/></g><clipPath id="b"><path transform="matrix(1 0 0 -1 0 14)" d="M4.308.615v6.442a.553.553 0 0 1-.155.39.514.514 0 0 1-.372.163H.528a.504.504 0 0 1-.373-.163.564.564 0 0 1-.155-.39V.615C0 .462.059.323.155.225A.514.514 0 0 1 .528.062H3.78c.146 0 .278.062.372.163.08.083.132.19.15.31 0 .019 0 .04.005.059v.021z" fill-rule="evenodd"/></clipPath><g clip-path="url(#b)"><path d="m4.153 6.553-.723.69.005.006.005.005.713-.701zm-3.998 0 .724.69.005-.005.005-.006-.734-.68zm0 7.222.724-.69-.006-.006-.005-.006-.713.702zm3.998 0-.723-.69-.006.005-.005.006.734.679zm.15-.31.989.145.01-.072v-.073h-1zm.005-.059.953.304.047-.148v-.156h-1zm1-.021V6.943h-2v6.442h2zm0-6.442c0-.41-.157-.802-.442-1.092L3.44 7.254a.448.448 0 0 1-.132-.311h2zm-.431-1.08A1.514 1.514 0 0 0 3.78 5.39v2a.487.487 0 0 1-.351-.147l1.447-1.38zM3.78 5.39H.528v2H3.78v-2zm-3.253 0c-.435 0-.83.185-1.107.484L.89 7.232a.496.496 0 0 1-.361.158v-2zm-1.096.472C-.838 6.146-1 6.53-1 6.942h2c0 .113-.044.22-.121.301l-1.447-1.38zM-1 6.942v6.443h2V6.943h-2zm0 6.443c0 .41.158.802.443 1.091l1.425-1.403a.448.448 0 0 1 .132.312h-2zm.432 1.08c.271.284.659.473 1.096.473v-2c.15 0 .273.065.35.146l-1.446 1.381zm1.096.473H3.78v-2H.528v2zm3.253 0c.434 0 .83-.185 1.106-.484l-1.468-1.358a.496.496 0 0 1 .362-.158v2zm1.096-.473c.224-.235.368-.534.415-.855l-1.979-.29a.434.434 0 0 1 .117-.236l1.447 1.381zm.426-1-.002.044a.875.875 0 0 1-.04.2l-1.905-.606a1.126 1.126 0 0 0-.05.26c-.004.052-.003.098-.003.102h2zm.005-.059V13.384h-2V13.407h2z" fill="#32c220"/></g></svg>