<svg width="25" height="28" viewBox="0 0 25 28" fill="none" xmlns="http://www.w3.org/2000/svg">
<path d="M12.1337 14.9767C8.01567 14.9767 4.66406 11.6167 4.66406 7.48837C4.66406 3.36 8.01567 0 12.1337 0C16.2518 0 19.6034 3.36 19.6034 7.48837C19.6034 11.6167 16.2518 14.9767 12.1337 14.9767ZM12.1337 1.95349C9.0939 1.95349 6.61267 4.44093 6.61267 7.48837C6.61267 10.5358 9.0939 13.0233 12.1337 13.0233C15.1736 13.0233 17.6548 10.5358 17.6548 7.48837C17.6548 4.44093 15.1736 1.95349 12.1337 1.95349Z" fill="#32C220"/>
<path d="M23.2924 28.0002C22.7597 28.0002 22.3181 27.5574 22.3181 27.0234C22.3181 22.5304 17.7453 18.8839 12.1333 18.8839C6.52134 18.8839 1.94861 22.5304 1.94861 27.0234C1.94861 27.5574 1.50692 28.0002 0.974304 28.0002C0.441685 28.0002 0 27.5574 0 27.0234C0 21.4625 5.44311 16.9304 12.1333 16.9304C18.8236 16.9304 24.2667 21.4625 24.2667 27.0234C24.2667 27.5574 23.825 28.0002 23.2924 28.0002Z" fill="#32C220"/>
</svg>
