<svg width="38" height="25" viewBox="0 0 38 25" fill="none" xmlns="http://www.w3.org/2000/svg">
<path d="M37.2022 17.9215C37.0337 18.5316 36.9776 19.1663 37.0363 19.7957C37.0496 19.8632 37.0472 19.9326 37.0295 19.9991C37.0117 20.0655 36.9789 20.1271 36.9335 20.1795C36.8882 20.2318 36.8314 20.2735 36.7673 20.3015C36.7033 20.3295 36.6337 20.343 36.5636 20.3411C35.6547 20.4613 34.7457 20.5949 33.8254 20.7084C32.6483 20.8531 31.4758 21.0222 30.3009 21.1669C29.2761 21.2916 28.2558 21.4452 27.2264 21.5498C26.2538 21.65 25.288 21.8058 24.3177 21.9349C23.6678 22.0239 23.0157 22.113 22.3658 22.1975C21.2159 22.3459 20.0668 22.4943 18.9185 22.6427L15.8008 23.0323C14.8434 23.1555 13.8875 23.2808 12.9331 23.4085C12.2832 23.4945 11.6325 23.5851 10.9811 23.68C9.82444 23.8425 8.66552 23.9961 7.50661 24.1252C6.34769 24.2543 5.23422 24.4814 4.09802 24.5192C3.87079 24.5192 3.67536 24.5192 3.60946 24.2454C3.39581 23.3095 2.97197 22.432 2.36874 21.6767C1.78019 20.9577 1.52114 20.0495 1.23255 19.1747C0.314066 16.3656 -0.0965859 13.4209 0.0190928 10.4734C0.0531786 9.189 0.184978 7.94024 0.730351 6.74712C0.99622 6.16392 0.941683 5.51171 0.95759 4.88176C0.973497 4.3453 1.04621 4.29856 1.59158 4.23401C2.6846 4.10713 3.77308 3.94686 4.86382 3.80439C5.87731 3.67306 6.89307 3.56844 7.90201 3.41262C9.00639 3.24122 10.1176 3.13883 11.2242 2.96743C11.8264 2.87839 12.4377 2.80048 13.0421 2.74483C14.042 2.64689 15.0373 2.50443 16.0326 2.3731C17.0984 2.23064 18.1641 2.0904 19.2299 1.92791C20.3456 1.76096 21.4704 1.64521 22.5884 1.48271C23.5088 1.3447 24.4427 1.24453 25.3698 1.12433C26.5878 0.964062 27.8081 0.806019 29.0307 0.679139C30.0873 0.565614 31.1372 0.398667 32.1893 0.260657C32.7824 0.182748 33.3914 0.191652 33.9708 0.0247047C34.1981 -0.0420742 34.3026 0.0247048 34.3549 0.247301C34.4185 0.512191 34.5389 0.765951 34.5821 1.03084C34.7389 1.83664 35.3252 2.39091 35.7433 3.04757C36.4818 4.20952 36.8795 5.49613 37.2249 6.83171C37.6036 8.24637 37.8568 9.69047 37.9816 11.1479C38.1378 12.6351 38.1172 14.135 37.9202 15.6176C37.8501 16.1754 37.7206 16.7245 37.5339 17.2559C37.4782 17.5002 37.3645 17.7282 37.2022 17.9215Z" fill="#F9EB37"/>
<path d="M13.7812 11.6826C12.7041 10.2958 10.3885 9.9775 8.74556 10.9814C8.29974 11.2622 7.89528 11.6015 7.54347 11.9898C7.53166 11.6725 7.59435 11.3568 7.72672 11.0669C7.8591 10.7771 8.05762 10.5209 8.30699 10.3181C8.71263 9.99644 9.17463 9.74979 9.67042 9.59018C10.596 9.2741 11.527 8.97285 12.4632 8.68644C12.5211 8.67971 12.5767 8.66029 12.626 8.62962C12.6752 8.59896 12.7167 8.55783 12.7475 8.5093C12.7783 8.46076 12.7975 8.40606 12.8037 8.34925C12.81 8.29245 12.8031 8.23499 12.7836 8.18115C12.6836 7.58681 12.6086 6.9858 12.5564 6.38702C12.5223 6.05758 12.4109 6.00638 12.1019 6.12213C10.9907 6.53616 9.85903 6.90122 8.7501 7.32415C6.79358 8.0743 5.43696 9.35646 5.11428 11.4778C4.86616 13.0068 5.09093 14.5736 5.75964 15.9765C6.44136 17.4033 7.51847 18.3783 9.19549 18.5519C11.0838 18.7434 13.0699 18.0911 14.0834 16.326C14.8287 14.9971 14.7288 12.9024 13.7812 11.6826ZM10.7475 15.9431C10.0999 16.2236 9.46818 16.2035 8.90236 15.7205C8.38652 15.2931 8.20019 14.7144 8.12747 14.0866C8.12555 14.0178 8.13947 13.9495 8.16819 13.8867C8.1969 13.8239 8.23968 13.7682 8.29335 13.7238C8.74819 13.2281 9.38429 12.9281 10.0635 12.8891C11.0111 12.8267 11.6406 13.4945 11.6315 14.6075C11.6369 14.8911 11.5556 15.1698 11.3981 15.4078C11.2406 15.6457 11.014 15.8322 10.7475 15.9431Z" fill="#404040"/>
<path d="M27.176 12.6762C27.3578 11.8281 27.5191 11.098 27.6737 10.3679C27.8532 9.50868 28.035 8.64946 28.2008 7.78801C28.2055 7.6925 28.247 7.6023 28.3171 7.53573C28.3871 7.46916 28.4805 7.43122 28.5781 7.42963C29.412 7.32946 30.2437 7.22262 31.0777 7.10019C31.3799 7.0579 31.364 7.18923 31.3049 7.40069C31.0504 8.35563 30.8027 9.3128 30.5482 10.2677C29.9369 12.5627 29.3757 14.8733 28.6917 17.1482C27.9668 19.5567 26.0921 20.042 23.9878 19.7771C23.8819 19.772 23.7817 19.728 23.7076 19.6536C23.6334 19.5793 23.5906 19.4803 23.5879 19.3764C23.5129 18.7642 23.4266 18.1521 23.3402 17.54C23.3061 17.2996 23.3402 17.166 23.6402 17.2729C24.0551 17.408 24.4998 17.4296 24.9263 17.3352C25.2275 17.2638 25.5009 17.1078 25.7128 16.8864C25.9248 16.6649 26.066 16.3877 26.1193 16.0886C26.1148 15.9373 26.0561 15.7923 25.9535 15.6791L21.6995 8.82086C21.3973 8.33337 21.4064 8.34005 22.004 8.27327C22.7267 8.19091 23.4493 8.10187 24.1674 7.98167C24.2922 7.94302 24.4274 7.95318 24.5447 8.01003C24.6621 8.06688 24.7524 8.166 24.7968 8.28663C25.4649 9.55543 26.1602 10.8131 26.842 12.0708C26.9238 12.2399 27.0192 12.4024 27.176 12.6762Z" fill="#404040"/>
<path d="M22.3291 3.73102L21.5792 6.17958C20.2521 10.495 18.9243 14.8134 17.5957 19.1347C17.4639 19.5621 17.3298 19.8492 16.7754 19.8559C16.164 19.8885 15.5561 19.9681 14.9575 20.0941C14.6507 20.1453 14.578 20.0785 14.6712 19.7825C15.4483 17.276 16.2141 14.7696 16.9867 12.2609C17.8048 9.60757 18.6297 6.93641 19.4364 4.26525C19.5272 3.96252 19.6636 3.79557 19.9863 3.76218C20.6816 3.6865 21.3747 3.58633 22.07 3.50397C22.2314 3.48171 22.4018 3.47948 22.3291 3.73102Z" fill="#404040"/>
</svg>
