<svg xmlns="http://www.w3.org/2000/svg" width="20" height="14pt" viewBox="0 0 15 14"><clipPath id="a"><path transform="matrix(1 0 0 -1 0 14)" d="M7.509.043c-.437 4.462 2.066 6.323 2.775 6.755a1.155 1.155 0 0 0-.009.145v6.365l-1.166.673H2.974c-.011 0-.026 0-.038.003-1.412.202-1.468-1.548-1.468-1.766a.27.27 0 0 0-.152-.267c-.886-.4-.51-1.652-.475-1.76a.271.271 0 0 0-.126-.331C-.435 9.276.29 8.226.383 8.094a.277.277 0 0 0 .027-.322c-2.081-3.344 4.42-2.518 4.836-2.463.032.006.067.01.102 0a.263.263 0 0 0 .2-.31C4.578-.15 6.814-.095 7.514.037L7.51.043z" fill-rule="evenodd"/></clipPath><g clip-path="url(#a)"><path d="m7.509 13.957-.498.049.017.171.119.125.362-.345zm2.775-6.755.26.426.277-.168-.04-.322-.497.064zm-.009-6.51h.5v-.29l-.25-.143-.25.433zM9.11.019l.25-.433-.116-.067h-.134v.5zM2.936.016l.127-.483-.028-.008-.028-.004-.07.495zM1.468 1.782h-.5v.02l.001.02.499-.04zm-.152.267-.205-.456H1.11l.206.456zM.84 3.809l-.476.155.004.01.003.009.469-.174zm-.126.331.226.446.006-.003-.232-.443zM.383 5.906l-.407.29.015.021.018.02.374-.331zm.027.322.424.264.007-.01-.431-.254zm4.836 2.463.066.495.014-.001.013-.003-.093-.491zm.102 0-.126.483.014.004.014.003.098-.49zm.2.31.491.092v-.002L5.549 9zm1.966 4.962.093.491.905-.17-.636-.666-.362.345zm.492-.055C7.594 9.701 9.936 8 10.545 7.628l-.521-.853c-.81.495-3.475 2.515-3.013 7.23l.995-.097zm2.774-6.77a.656.656 0 0 1-.005-.08h-1c0 .068.004.138.013.207l.992-.127zm-.005-.08V.691h-1v6.365h1zm-.25-6.8L9.36-.413l-.5.867 1.167.672.5-.866zM9.11-.48H2.974v1H9.11v-1zm-6.135 0h.01a.37.37 0 0 1 .079.014L2.81.5a.598.598 0 0 0 .116.018c.024.002.045.001.048.001v-1zm.033.002c-.462-.066-.86.025-1.178.242-.307.21-.497.506-.615.78a3.366 3.366 0 0 0-.246 1.239h1c0-.09.014-.498.163-.842a.794.794 0 0 1 .262-.35c.089-.062.228-.114.472-.079l.142-.99zM.97 1.821a.231.231 0 0 1 .142-.228l.41.912a.769.769 0 0 0 .445-.763l-.997.08zm.14-.228c-.694.313-.86.966-.876 1.429a2.97 2.97 0 0 0 .132.942l.95-.311a1.984 1.984 0 0 1-.082-.598c.01-.29.097-.464.288-.55l-.411-.912zm-.737 2.39a.23.23 0 0 1 .11-.286l.465.886a.77.77 0 0 0 .362-.949l-.937.349zm.116-.289c-.362.184-.62.428-.77.724a1.415 1.415 0 0 0-.13.843c.067.48.335.86.388.934l.815-.579a1.244 1.244 0 0 1-.213-.493.418.418 0 0 1 .033-.254c.035-.07.118-.175.33-.283l-.453-.892zM.01 6.237a.223.223 0 0 1-.03-.263l.862.508a.777.777 0 0 0-.083-.908l-.749.663zm-.024-.273c-.285.458-.453.89-.48 1.298-.03.423.094.792.338 1.088.453.548 1.256.775 1.977.879 1.493.216 3.284-.015 3.492-.043l-.132-.99c-.209.027-1.876.237-3.217.043-.696-.1-1.154-.29-1.348-.526a.505.505 0 0 1-.113-.382c.013-.188.097-.46.332-.839l-.849-.528zM5.34 9.182l-.032.003a.312.312 0 0 1-.085-.01l.253-.968a.728.728 0 0 0-.323-.007l.187.982zm-.089-.001a.238.238 0 0 1-.194-.27l.984.18a.763.763 0 0 0-.593-.89l-.197.98zm-.194-.273c-.49 2.604-.214 4.083.469 4.88.706.824 1.68.742 2.082.666l-.185-.982c-.3.056-.793.068-1.138-.335-.368-.43-.724-1.498-.245-4.044l-.983-.185zm2.82 4.71-.006-.006-.723.69.006.006.723-.69z" fill="#ff6c36"/></g><clipPath id="b"><path transform="matrix(1 0 0 -1 0 14)" d="M10.692 13.385V6.943c0-.154.058-.292.155-.39a.514.514 0 0 1 .372-.163h3.253c.147 0 .279.061.373.163.096.101.155.24.155.39v6.442a.553.553 0 0 1-.155.39.514.514 0 0 1-.373.163H11.22a.504.504 0 0 1-.372-.163.566.566 0 0 1-.15-.31c0-.019 0-.04-.005-.059v-.021z" fill-rule="evenodd"/></clipPath><g clip-path="url(#b)"><path d="m10.847 7.447.362-.345-.006-.006-.356.351zm3.998 0-.362-.345-.005.006.367.34zm0-7.222-.362.345.005.006.357-.35zm-3.998 0 .362.345.005-.005-.367-.34zm-.15.31-.494-.072-.006.036v.036h.5zm-.005.059-.477-.152-.023.074v.078h.5zm-.5.021v6.442h1V.615h-1zm0 6.442c0 .282.108.547.299.74l.712-.7c-.003-.003-.011-.015-.011-.04h-1zm.293.735c.184.193.444.318.734.318v-1a.034.034 0 0 1-.01-.008l-.724.69zm.734.318h3.253v-1H11.22v1zm3.253 0c.29 0 .554-.123.74-.323l-.734-.68-.002.002h-.004v1zm.734-.318c.184-.192.294-.453.294-.735h-1c0 .02-.007.035-.017.045l.723.69zm.294-.735V.615h-1v6.442h1zm0-6.442c0-.282-.108-.547-.299-.74l-.713.7c.003.004.012.015.012.04h1zm-.294-.735a1.014 1.014 0 0 0-.734-.318v1h.001l.01.008.723-.69zm-.734-.318H11.22v1h3.253v-1zm-3.253 0c-.29 0-.554.123-.74.323l.735.68a.013.013 0 0 1 .002-.002h.003v-1zm-.734.318c-.152.16-.25.362-.282.583l.99.145a.067.067 0 0 1 .016-.038l-.724-.69zm-.288.655c0 .012 0 .004.001-.007 0-.012.004-.044.017-.086l.953.303c.034-.106.03-.208.03-.21h-1zm-.005.059V.616h1V.593h-1z" fill="#ff6c36"/></g></svg>