<svg width="14" height="15" viewBox="0 0 14 15" fill="none" xmlns="http://www.w3.org/2000/svg">
<path fill-rule="evenodd" clip-rule="evenodd" d="M4 0C4.276 0 4.5 0.241071 4.5 0.535714V1.07143H9.5V0.535714C9.5 0.241071 9.724 0 10 0C10.276 0 10.5 0.241071 10.5 0.535714V1.07143H11.5C12.8805 1.07143 14 2.27143 14 3.75V12.3214C14 13.8 12.8805 15 11.5 15H2.5C1.1195 15 0 13.8 0 12.3214V3.75C0 2.27143 1.1195 1.07143 2.5 1.07143H3.5V0.535714C3.5 0.241071 3.724 0 4 0ZM3.5 2.14286H2.5C1.6715 2.14286 1 2.86071 1 3.75V4.82143H13V3.75C13 2.86071 12.3285 2.14286 11.5 2.14286H10.5V2.67857C10.5 2.97321 10.276 3.21429 10 3.21429C9.724 3.21429 9.5 2.97321 9.5 2.67857V2.14286H4.5V2.67857C4.5 2.97321 4.276 3.21429 4 3.21429C3.724 3.21429 3.5 2.97321 3.5 2.67857V2.14286ZM13 5.89286H1V12.3214C1 13.2107 1.6715 13.9286 2.5 13.9286H11.5C12.3285 13.9286 13 13.2107 13 12.3214V5.89286ZM3 8.57143C3 8.27679 3.224 8.03571 3.5 8.03571H4.5C4.776 8.03571 5 8.27679 5 8.57143C5 8.86607 4.776 9.10714 4.5 9.10714H3.5C3.224 9.10714 3 8.86607 3 8.57143ZM6 8.57143C6 8.27679 6.224 8.03571 6.5 8.03571H7.5C7.776 8.03571 8 8.27679 8 8.57143C8 8.86607 7.776 9.10714 7.5 9.10714H6.5C6.224 9.10714 6 8.86607 6 8.57143ZM9 8.57143C9 8.27679 9.224 8.03571 9.5 8.03571H10.5C10.776 8.03571 11 8.27679 11 8.57143C11 8.86607 10.776 9.10714 10.5 9.10714H9.5C9.224 9.10714 9 8.86607 9 8.57143ZM3 11.25C3 10.9554 3.224 10.7143 3.5 10.7143H4.5C4.776 10.7143 5 10.9554 5 11.25C5 11.5446 4.776 11.7857 4.5 11.7857H3.5C3.224 11.7857 3 11.5446 3 11.25ZM6 11.25C6 10.9554 6.224 10.7143 6.5 10.7143H7.5C7.776 10.7143 8 10.9554 8 11.25C8 11.5446 7.776 11.7857 7.5 11.7857H6.5C6.224 11.7857 6 11.5446 6 11.25ZM9 11.25C9 10.9554 9.224 10.7143 9.5 10.7143H10.5C10.776 10.7143 11 10.9554 11 11.25C11 11.5446 10.776 11.7857 10.5 11.7857H9.5C9.224 11.7857 9 11.5446 9 11.25Z" fill="#757575"/>
</svg>
